<svg width="574" height="153" viewBox="0 0 574 153" fill="none" xmlns="http://www.w3.org/2000/svg">
<path d="M34.8047 111V40.92H58.7088C63.6368 40.92 67.9248 41.848 71.5728 43.704C75.2848 45.56 78.1328 48.152 80.1168 51.48C82.1648 54.808 83.1888 58.712 83.1888 63.192C83.1888 67.608 82.1648 71.512 80.1168 74.904C78.0688 78.232 75.2208 80.824 71.5728 82.68C67.9248 84.536 63.6368 85.464 58.7088 85.464H49.2048V111H34.8047ZM49.2048 72.504H58.7088C61.7808 72.504 64.2128 71.672 66.0048 70.008C67.8608 68.28 68.7888 66.008 68.7888 63.192C68.7888 60.376 67.8608 58.136 66.0048 56.472C64.2128 54.744 61.7808 53.88 58.7088 53.88H49.2048V72.504ZM92.7513 111V97.944H110.991V71.16H95.1513V58.2H124.431V97.944H139.791V111H92.7513ZM116.751 49.848C114.127 49.848 112.015 49.176 110.415 47.832C108.879 46.488 108.111 44.664 108.111 42.36C108.111 40.056 108.879 38.232 110.415 36.888C112.015 35.544 114.127 34.872 116.751 34.872C119.375 34.872 121.455 35.544 122.991 36.888C124.591 38.232 125.391 40.056 125.391 42.36C125.391 44.664 124.591 46.488 122.991 47.832C121.455 49.176 119.375 49.848 116.751 49.848ZM149.93 111V58.2H163.85V68.28H168.074L163.85 71.64C163.85 67.16 165.13 63.64 167.69 61.08C170.25 58.52 173.706 57.24 178.058 57.24C183.178 57.24 187.274 59.032 190.346 62.616C193.482 66.2 195.05 70.968 195.05 76.92V111H180.65V78.36C180.65 75.608 179.914 73.496 178.442 72.024C177.034 70.488 175.018 69.72 172.394 69.72C169.834 69.72 167.85 70.488 166.442 72.024C165.034 73.496 164.33 75.608 164.33 78.36V111H149.93ZM235.716 111C230.34 111 226.116 109.464 223.044 106.392C219.972 103.32 218.436 99.096 218.436 93.72V71.16H204.516V58.2H218.436V43.32H232.836V58.2H252.516V71.16H232.836V93.72C232.836 96.6 234.276 98.04 237.156 98.04H251.556V111H235.716ZM280.703 111.96C275.391 111.96 271.167 110.52 268.031 107.64C264.959 104.76 263.423 100.856 263.423 95.928C263.423 90.616 265.247 86.552 268.895 83.736C272.607 80.856 277.919 79.416 284.831 79.416H295.775V75.48C295.775 73.432 295.039 71.8 293.567 70.584C292.159 69.368 290.239 68.76 287.807 68.76C285.567 68.76 283.711 69.272 282.239 70.296C280.767 71.32 279.871 72.728 279.551 74.52H265.631C266.207 69.208 268.511 65.016 272.543 61.944C276.639 58.808 281.887 57.24 288.287 57.24C295.007 57.24 300.319 58.904 304.223 62.232C308.191 65.496 310.175 69.912 310.175 75.48V111H296.255V102.36H293.951L296.351 99C296.351 102.968 294.911 106.136 292.031 108.504C289.215 110.808 285.439 111.96 280.703 111.96ZM286.079 101.4C288.895 101.4 291.199 100.664 292.991 99.192C294.847 97.656 295.775 95.672 295.775 93.24V87.576H285.119C282.943 87.576 281.183 88.216 279.839 89.496C278.495 90.712 277.823 92.344 277.823 94.392C277.823 96.568 278.559 98.296 280.031 99.576C281.503 100.792 283.519 101.4 286.079 101.4ZM324.153 111V58.2H337.593V68.28H341.241L337.113 74.424C337.113 68.728 338.425 64.44 341.049 61.56C343.673 58.68 347.513 57.24 352.569 57.24C358.393 57.24 362.905 59 366.105 62.52C369.369 66.04 371.001 71 371.001 77.4V81.72H355.641V78.36C355.641 75.48 354.841 73.24 353.241 71.64C351.705 70.04 349.625 69.24 347.001 69.24C344.249 69.24 342.137 70.04 340.665 71.64C339.257 73.24 338.553 75.48 338.553 78.36V111H324.153ZM379.604 111V40.92H396.404L414.548 95.16C414.356 92.792 414.132 90.072 413.876 87C413.62 83.864 413.396 80.76 413.204 77.688C413.076 74.552 413.012 71.896 413.012 69.72V40.92H425.684V111H408.884L390.932 56.76C391.124 58.808 391.316 61.24 391.508 64.056C391.7 66.872 391.86 69.72 391.988 72.6C392.18 75.48 392.276 78.04 392.276 80.28V111H379.604ZM460.302 111.96C455.63 111.96 451.534 111.096 448.014 109.368C444.558 107.576 441.87 105.112 439.95 101.976C438.094 98.776 437.166 95.064 437.166 90.84V78.36C437.166 74.136 438.094 70.456 439.95 67.32C441.87 64.12 444.558 61.656 448.014 59.928C451.534 58.136 455.63 57.24 460.302 57.24C464.974 57.24 469.006 58.136 472.398 59.928C475.854 61.656 478.51 64.12 480.366 67.32C482.286 70.456 483.246 74.136 483.246 78.36V87.96H450.894V90.84C450.894 94.168 451.694 96.696 453.294 98.424C454.894 100.088 457.294 100.92 460.494 100.92C462.734 100.92 464.526 100.536 465.87 99.768C467.278 99 468.206 97.944 468.654 96.6H482.766C481.614 101.208 478.99 104.92 474.894 107.736C470.862 110.552 465.998 111.96 460.302 111.96ZM469.518 80.568V78.168C469.518 74.904 468.75 72.408 467.214 70.68C465.742 68.952 463.438 68.088 460.302 68.088C457.166 68.088 454.798 68.984 453.198 70.776C451.662 72.568 450.894 75.096 450.894 78.36V79.8L470.478 79.608L469.518 80.568ZM523.529 111C518.153 111 513.929 109.464 510.857 106.392C507.785 103.32 506.249 99.096 506.249 93.72V71.16H492.329V58.2H506.249V43.32H520.649V58.2H540.329V71.16H520.649V93.72C520.649 96.6 522.089 98.04 524.969 98.04H539.369V111H523.529Z" fill="url(#paint0_linear_1_7)"/>
<defs>
<linearGradient id="paint0_linear_1_7" x1="28" y1="36.5" x2="547" y2="111" gradientUnits="userSpaceOnUse">
<stop stop-color="#1862B9"/>
<stop offset="1" stop-color="#278AFF"/>
</linearGradient>
</defs>
</svg>
